<?xml version="1.0" encoding="UTF-8"?>
<svg id="_圖層_1" data-name="圖層_1" xmlns="http://www.w3.org/2000/svg" version="1.1" viewBox="0 0 56 56">
  <!-- Generator: Adobe Illustrator 30.3.0, SVG Export Plug-In . SVG Version: 2.1.3 Build 182)  -->
  <defs>
    <style>
      .st0 {
        fill: #b0b0b0;
      }

      .st1 {
        fill: none;
        stroke: #b0b0b0;
        stroke-width: 2px;
      }
    </style>
  </defs>
  <path class="st1" d="M28,55c14.91,0,27-12.09,27-27S42.91,1,28,1,1,13.09,1,28s12.09,27,27,27Z"/>
  <path class="st0" d="M25.34,35.07c-.39.39-1.02.39-1.41,0-.39-.39-.39-1.02,0-1.41l5.66-5.66-5.66-5.66c-.39-.39-.39-1.02,0-1.41.39-.39,1.02-.39,1.41,0l6.36,6.36c.39.39.39,1.02,0,1.41l-6.36,6.36ZM30,27h1v1s0,1,0,1h-1v-1s0-1,0-1Z"/>
</svg>