<svg width="56" height="56" viewBox="0 0 56 56" fill="none" xmlns="http://www.w3.org/2000/svg">
<path d="M1 28C1 13.0883 13.0883 1 28 1C42.9117 1 55 13.0883 55 28C55 42.9117 42.9117 55 28 55C13.0883 55 1 42.9117 1 28Z" stroke="#3D3D3D" stroke-width="2"/>
<path d="M31.7071 28.7071C32.0976 28.3166 32.0976 27.6834 31.7071 27.2929L25.3431 20.9289C24.9526 20.5384 24.3195 20.5384 23.9289 20.9289C23.5384 21.3195 23.5384 21.9526 23.9289 22.3431L29.5858 28L23.9289 33.6569C23.5384 34.0474 23.5384 34.6805 23.9289 35.0711C24.3195 35.4616 24.9526 35.4616 25.3431 35.0711L31.7071 28.7071ZM30 28L30 29L31 29L31 28L31 27L30 27L30 28Z" fill="#3D3D3D"/>
</svg>
