<svg width="48" height="48" viewBox="0 0 48 48" fill="none" xmlns="http://www.w3.org/2000/svg">
<path d="M0 24C0 10.7452 10.7452 0 24 0C37.2548 0 48 10.7452 48 24C48 37.2548 37.2548 48 24 48C10.7452 48 0 37.2548 0 24Z" fill="#FFA12B"/>
<path d="M8.46935 25.3013C8.56535 24.3413 9.10935 23.072 9.66402 22.2827C11.616 19.552 15.2427 18.7093 18.2187 20.2667C18.3253 19.9253 19.392 18.5813 19.3707 18.368L18.4 16.3947C18.304 16.3307 17.4507 16.416 17.2267 16.3947C16.6187 16.32 16.576 15.3707 17.344 15.296C18.4853 15.1893 19.808 15.3707 20.9707 15.3067C21.3227 15.4347 21.4934 15.8507 21.2587 16.1707C21.2267 16.224 21.024 16.384 20.9813 16.384H19.616L20.3413 17.8987H27.9787L27.0294 15.9573C27.0294 15.552 27.1787 15.3173 27.584 15.2853C28.448 15.2107 30.432 15.1893 31.2854 15.2853C32.7467 15.4453 33.184 17.408 31.9787 18.2187C31.456 18.5707 29.8134 18.784 29.984 17.8027C30.1334 16.96 31.712 17.7813 31.552 16.768C31.52 16.576 31.2747 16.3733 31.104 16.3733H28.5227L30.336 19.9253L30.4747 19.9467C36.5654 17.568 42.112 24.576 38.272 29.984C34.432 35.392 25.4613 32.096 26.2827 25.2693C26.5173 23.3067 27.7334 21.5467 29.3547 20.4693L28.8427 19.5947L24.4373 26.4L23.7867 28.6293C24.064 28.6293 24.416 28.5547 24.608 28.8107C24.9067 29.1947 24.6507 29.6747 24.1813 29.728C23.776 29.7813 22.7093 29.7707 22.304 29.728C21.8987 29.6853 21.664 29.4507 21.728 29.0347C21.8133 28.4907 22.496 28.7147 22.6027 28.576C22.7947 28.3413 22.9867 27.0507 23.1787 26.6987H21.664C21.216 31.9467 15.072 34.6347 10.9013 31.3067C9.66402 30.3147 8.60802 28.5333 8.44802 26.944C8.40535 26.5387 8.40535 25.7067 8.44802 25.312L8.46935 25.3013ZM27.872 18.9973H20.96L23.9893 25.0027L27.872 18.9973ZM21.6853 25.5467H23.0187L19.9573 19.6053L19.1467 20.8533C20.5547 22.0373 21.5573 23.68 21.6853 25.5573V25.5467ZM20.5973 26.6987H14.9867C14.656 26.6987 14.3893 26.1227 14.6133 25.8347L17.568 21.216C14.592 19.6373 10.7627 21.28 9.81335 24.4907C8.59735 28.5866 12.128 32.4053 16.2987 31.52C18.6133 31.0293 20.32 29.024 20.608 26.6987H20.5973ZM29.9307 21.5467C28.128 22.5067 27.2107 24.7253 27.392 26.72C27.9467 32.7893 36.9174 33.4187 38.2827 27.3813C39.264 23.0187 35.0507 19.4773 30.9014 20.9387L30.944 21.1627L33.3974 25.92C33.5574 26.8693 32.4907 26.9333 32.2134 26.0693L29.92 21.536L29.9307 21.5467ZM20.5973 25.5467C20.384 24.128 19.712 22.6773 18.5067 21.8453L16.1707 25.5467H20.5973Z" fill="#2D2A26"/>
</svg>
