<svg width="48" height="48" viewBox="0 0 48 48" fill="none" xmlns="http://www.w3.org/2000/svg">
<path d="M0 24C0 10.7452 10.7452 0 24 0C37.2548 0 48 10.7452 48 24C48 37.2548 37.2548 48 24 48C10.7452 48 0 37.2548 0 24Z" fill="#34A7FC"/>
<path d="M14.4993 28.7466H12.9324C12.9324 28.7466 12.5177 28.5853 12.4486 28.5508C11.8034 28.2051 11.6421 27.5484 11.6075 26.8687C11.5038 25.2097 11.4923 22.7096 11.6075 21.0621C11.6536 20.3824 11.8495 19.7372 12.4946 19.4146C12.5523 19.3916 12.9094 19.2418 12.9324 19.2418H14.4993V17.2948C14.4993 16.7763 15.2597 16.1081 15.7666 16.039C16.1237 15.9929 17.7136 15.9814 18.0247 16.039C18.2666 16.0966 18.3703 16.3846 18.3819 16.6035L18.3588 31.5116C18.2782 31.7305 18.209 31.8803 17.9671 31.9264C17.5869 31.984 16.0892 31.984 15.709 31.9264C15.2251 31.8458 14.4878 31.1775 14.4878 30.6821V28.7351L14.4993 28.7466Z" fill="#F6F6F6"/>
<path d="M33.7398 19.2534H35.3066C35.3066 19.2534 35.6868 19.4032 35.7444 19.4262C36.1707 19.6336 36.4587 20.0598 36.5624 20.5207C36.4472 22.7212 36.7352 25.1176 36.5624 27.3065C36.5279 27.825 36.2398 28.3089 35.779 28.5623C35.7214 28.5969 35.3182 28.7582 35.2951 28.7582H33.7283V30.7052C33.7283 30.7052 33.5785 31.0854 33.5555 31.143C33.3596 31.5232 32.8872 31.9034 32.461 31.961C32.1038 32.0071 30.5139 32.0186 30.2029 31.961C29.9148 31.8919 29.8457 31.5923 29.8457 31.3273L29.8803 16.4307C29.9264 16.2234 30.0416 16.0966 30.2605 16.0736C30.6522 16.016 32.1384 16.016 32.5186 16.0736C32.8988 16.1312 33.3826 16.5229 33.567 16.8801C33.59 16.9377 33.7398 17.2948 33.7398 17.3179V19.2649V19.2534Z" fill="#F6F6F6"/>
<path d="M29.2441 22.2142H19.002V25.7857H29.2441V22.2142Z" fill="#F6F6F6"/>
<path d="M11.0431 22.2142V25.7857H9.66063C9.37261 25.7857 8.92329 25.3249 8.85416 25.0484C8.78504 24.7719 8.78504 23.2742 8.84264 22.9977C8.90025 22.6981 9.36109 22.2142 9.66063 22.2142H11.0431Z" fill="#F6F6F6"/>
<path d="M37.1953 25.7857V22.2142H38.5778C38.8428 22.2142 39.2806 22.6635 39.3613 22.9055C39.4419 23.1474 39.4534 24.7719 39.3843 25.0484C39.3152 25.3249 38.8543 25.7857 38.5778 25.7857H37.1953Z" fill="#F6F6F6"/>
</svg>
