<svg width="56" height="56" viewBox="0 0 56 56" fill="none" xmlns="http://www.w3.org/2000/svg">
<path d="M55 28C55 13.0883 42.9117 1 28 1C13.0883 1 1 13.0883 1 28C1 42.9117 13.0883 55 28 55C42.9117 55 55 42.9117 55 28Z" stroke="#3D3D3D" stroke-width="2"/>
<path d="M24.2929 28.7071C23.9024 28.3166 23.9024 27.6834 24.2929 27.2929L30.6569 20.9289C31.0474 20.5384 31.6805 20.5384 32.0711 20.9289C32.4616 21.3195 32.4616 21.9526 32.0711 22.3431L26.4142 28L32.0711 33.6569C32.4616 34.0474 32.4616 34.6805 32.0711 35.0711C31.6805 35.4616 31.0474 35.4616 30.6569 35.0711L24.2929 28.7071ZM26 28L26 29L25 29L25 28L25 27L26 27L26 28Z" fill="#3D3D3D"/>
</svg>
