<svg width="48" height="48" viewBox="0 0 48 48" fill="none" xmlns="http://www.w3.org/2000/svg">
<path d="M0 24C0 10.7452 10.7452 0 24 0C37.2548 0 48 10.7452 48 24C48 37.2548 37.2548 48 24 48C10.7452 48 0 37.2548 0 24Z" fill="#25C386"/>
<path d="M26.5081 36C24.4638 36 22.5311 35.2198 21.09 33.7912C19.6489 32.3626 18.8558 30.4615 18.8558 28.4176V28.1429L18.5765 28.0989C17.3365 27.8901 16.1635 27.3956 15.1916 26.6813C11.8848 24.2198 11.9519 20.7912 12.0189 17.1758C12.0301 16.4286 12.0524 15.6703 12.0301 14.9121C12.1194 13.956 12.8679 13.2198 13.8957 13.1319C13.9962 13.1319 14.1079 13.1209 14.2085 13.1209H14.8564C14.9458 13.1209 15.0352 13.1209 15.1245 13.1209L15.4373 13.0989V12.7912C15.4373 12.2637 15.8842 12.022 16.2864 12.022C16.6103 12.022 16.979 12.1758 17.0572 12.6154C17.1354 13.0769 17.1242 14.5714 17.0683 15.1429C17.0237 15.6703 16.6103 15.8571 16.2752 15.8571C15.873 15.8571 15.4597 15.6154 15.4485 15.0769V14.7582H13.6387V15.0989C13.6834 15.9341 13.6611 16.7912 13.6387 17.6264C13.6164 18.5494 13.5941 19.5055 13.6387 20.4286C13.8622 24.6154 16.9455 26.5275 19.7271 26.5275C22.3524 26.5275 25.2123 24.8242 25.6703 21.022V14.7582H23.894V15.0769C23.8717 15.6154 23.4695 15.8462 23.0785 15.8462C22.7434 15.8462 22.3189 15.6593 22.263 15.1209C22.2072 14.6154 22.196 13.1978 22.263 12.6813C22.3301 12.1758 22.7434 12 23.0785 12C23.4807 12 23.8829 12.2418 23.894 12.7692V13.0879H24.3409H24.9665C25.4357 13.0879 25.8267 13.1099 26.1953 13.2747C26.7651 13.5275 27.2566 14.1978 27.3125 14.8022C27.2566 15.7912 27.2901 16.8681 27.3125 17.9121C27.346 19.022 27.3795 20.1758 27.3125 21.2637C27.1002 24.6374 24.2292 27.6264 20.7772 28.0659L20.4644 28.1099L20.4868 28.4176C20.5203 28.9451 20.565 29.4286 20.6879 29.9341C21.1682 31.8681 22.7992 33.5494 24.7431 34.1209C25.324 34.2857 25.9161 34.3736 26.497 34.3736C28.1168 34.3736 29.6361 33.7473 30.7756 32.6044C31.9151 31.4615 32.5295 29.9451 32.5071 28.3187V28.0769L32.2725 28.011C30.9655 27.6154 30.0271 26.5934 29.7478 25.2857C29.4685 23.989 29.9154 22.7033 30.932 21.8242C31.5911 21.2637 32.4401 20.9451 33.3227 20.9451C34.6297 20.9451 35.8027 21.5934 36.4618 22.6703C37.0651 23.6484 37.1656 24.8242 36.7411 25.8791C36.3277 26.9121 35.4676 27.6703 34.3839 27.978L34.127 28.044V28.3077C34.2722 31.9231 31.5129 35.2527 27.8599 35.8681C27.413 35.9451 26.955 35.978 26.5081 35.978V36ZM33.3338 22.5824C32.2167 22.5824 31.3118 23.4725 31.3118 24.5714C31.3118 25.6703 32.2167 26.5604 33.3338 26.5604C34.451 26.5604 35.3558 25.6703 35.3558 24.5714C35.3558 23.4725 34.451 22.5824 33.3338 22.5824Z" fill="#F6F6F6"/>
</svg>
