<svg width="60" height="60" viewBox="0 0 60 60" fill="none" xmlns="http://www.w3.org/2000/svg">
<path d="M30 60C46.5685 60 60 46.5685 60 30C60 13.4315 46.5685 0 30 0C13.4315 0 0 13.4315 0 30C0 46.5685 13.4315 60 30 60Z" fill="#005FB3"/>
<path d="M23.5125 25.0248C22.1625 25.0373 20.825 25.0373 19.475 25.0248C19.15 25.0248 19.0625 25.1123 19.0625 25.4373C19.075 27.7248 19.0625 29.9998 19.0625 32.2873C19.0625 34.5748 19.0625 36.8498 19.0625 39.1373C19.0625 39.3998 19.1125 39.4873 19.4 39.4873C20.7875 39.4748 22.175 39.4748 23.55 39.4873C23.8375 39.4873 23.8875 39.3873 23.875 39.1248C23.875 34.5498 23.875 29.9623 23.875 25.3873C23.875 25.0873 23.775 25.0248 23.5 25.0248H23.5125Z" fill="white"/>
<path d="M21.5238 18.0747C19.9238 18.0747 18.7988 19.0997 18.7988 20.5622C18.7988 22.0247 19.9113 23.0622 21.4738 23.0622C23.0488 23.0622 24.1863 22.0122 24.1863 20.5872C24.1863 19.1247 23.0738 18.0747 21.5113 18.0747H21.5238Z" fill="white"/>
<path d="M41.175 31.3495C41.175 30.612 41.1375 29.887 40.9875 29.1745C40.6125 27.437 39.8125 26.012 38.125 25.212C35.7 24.062 33.0625 24.7245 31.475 26.8495C31.45 26.8745 31.425 26.912 31.4125 26.937C31.3875 26.937 31.35 26.9245 31.325 26.912C31.325 26.3745 31.325 25.8495 31.325 25.312C31.325 25.0995 31.2625 25.012 31.0375 25.012C29.625 25.012 28.2125 25.012 26.8 25.012C26.5875 25.012 26.5 25.0745 26.5125 25.2995C26.5375 25.637 26.525 25.962 26.525 26.2995C26.525 30.562 26.525 34.812 26.5 39.0745C26.5 39.3995 26.5875 39.4745 26.9 39.4745C28.225 39.462 29.5375 39.4495 30.8625 39.4745C31.2 39.4745 31.325 39.412 31.3125 39.037C31.2875 37.7745 31.3 36.5245 31.3125 35.262C31.3125 33.812 31.3125 32.362 31.35 30.912C31.375 30.037 31.825 29.3745 32.525 28.887C33.9125 27.9245 35.675 28.5495 36.1625 30.1495C36.325 30.6995 36.3625 31.2495 36.3625 31.8245C36.3625 34.2495 36.3625 36.6745 36.3625 39.0995C36.3625 39.387 36.4375 39.462 36.725 39.462C38.0625 39.4495 39.3875 39.4495 40.725 39.462C41.0625 39.462 41.175 39.387 41.175 39.0245C41.1625 36.462 41.175 33.8995 41.175 31.3245V31.3495Z" fill="white"/>
</svg>
