<svg width="60" height="60" viewBox="0 0 60 60" fill="none" xmlns="http://www.w3.org/2000/svg">
<path d="M30 60C46.5685 60 60 46.5685 60 30C60 13.4315 46.5685 0 30 0C13.4315 0 0 13.4315 0 30C0 46.5685 13.4315 60 30 60Z" fill="#005FB3"/>
<path d="M24.1758 30.0125C24.7758 30 25.3758 30.0375 25.9633 30C26.3883 29.975 26.4508 30.125 26.4383 30.5C26.4258 34.625 26.4383 38.75 26.4258 42.875C26.4258 43.225 26.5258 43.3375 26.8758 43.325C28.4258 43.3125 29.9883 43.3125 31.5383 43.325C31.8883 43.325 31.9883 43.225 31.9883 42.875C31.9758 40.8 31.9883 38.725 31.9883 36.65C31.9883 34.575 31.9883 32.5 31.9883 30.425C31.9883 30.0875 32.0758 30 32.4133 30.0125C33.4008 30.0375 34.3883 30.0125 35.3758 30.025C35.6508 30.025 35.7508 29.95 35.7758 29.6625C35.8883 28.35 36.0258 27.05 36.1883 25.7375C36.2258 25.3875 36.1383 25.3 35.8008 25.3125C34.6508 25.325 33.5008 25.3125 32.3508 25.3125C32.0758 25.3125 31.9883 25.2375 32.0008 24.9625C32.0133 24.175 32.0008 23.375 32.0008 22.5875C32.0008 21.6875 32.4133 21.275 33.3133 21.2625C34.1383 21.2625 34.9508 21.2625 35.7758 21.2625C36.0383 21.2625 36.1383 21.2 36.1383 20.9125C36.1258 19.6125 36.1383 18.3125 36.1383 17.0125C36.1383 16.75 36.0383 16.675 35.8008 16.6875C34.4508 16.6875 33.1133 16.6375 31.7633 16.6875C28.6258 16.8 26.8133 18.525 26.4883 21.6625C26.3758 22.75 26.4508 23.8375 26.4508 24.9375C26.4508 25.2375 26.3508 25.325 26.0633 25.3125C25.4383 25.3 24.8133 25.3125 24.1758 25.3125C23.9258 25.3125 23.8008 25.35 23.8008 25.65C23.8133 27 23.8133 28.3375 23.8008 29.6875C23.8008 29.9875 23.9133 30.025 24.1633 30.025L24.1758 30.0125Z" fill="white"/>
</svg>
