<svg width="54" height="54" viewBox="0 0 54 54" fill="none" xmlns="http://www.w3.org/2000/svg">
<path d="M27 1C41.3594 1 53 12.6406 53 27C53 41.3594 41.3594 53 27 53C12.6406 53 1 41.3594 1 27C1 12.6406 12.6406 1 27 1Z" fill="white"/>
<path d="M27 1C41.3594 1 53 12.6406 53 27C53 41.3594 41.3594 53 27 53C12.6406 53 1 41.3594 1 27C1 12.6406 12.6406 1 27 1Z" stroke="black" stroke-width="2"/>
<path d="M25.0098 26.9436C24.9344 26.8893 24.8483 26.8443 24.7835 26.7794C22.6748 24.6728 20.5674 22.5649 18.46 20.457C18.1807 20.1777 18.1807 20.1419 18.456 19.8665C18.9352 19.3872 19.4131 18.9079 19.8936 18.4299C20.1345 18.1889 20.1835 18.1889 20.431 18.4365C22.5397 20.5444 24.6471 22.651 26.7519 24.7615C26.8287 24.8383 26.8737 24.9442 26.9332 25.0369C26.9782 25.0369 27.0232 25.0369 27.0683 25.0369C27.1278 24.9442 27.1742 24.8383 27.2509 24.7615C29.3438 22.6629 31.4406 20.5683 33.536 18.4723C33.8299 18.1783 33.8551 18.1783 34.145 18.467C34.6122 18.9344 35.0795 19.4004 35.5455 19.8678C35.8182 20.1406 35.8182 20.1803 35.5375 20.461C33.4354 22.5636 31.3347 24.6649 29.2312 26.7648C29.1598 26.8363 29.0684 26.8853 28.985 26.9449C28.9731 26.9873 28.9625 27.031 28.9506 27.0733C29.0393 27.1236 29.1452 27.1554 29.2154 27.2256C31.3201 29.3242 33.4209 31.4268 35.523 33.5294C35.8248 33.8313 35.8248 33.8644 35.5283 34.161C35.0676 34.6217 34.6056 35.0825 34.1436 35.5433C33.8683 35.8174 33.8193 35.8187 33.5493 35.5486C31.4472 33.4473 29.3451 31.3447 27.2443 29.2421C27.1728 29.1706 27.1133 29.0872 27.0272 28.9839C26.9279 29.0779 26.8565 29.1428 26.7876 29.2117C24.6789 31.3196 22.5715 33.4274 20.4641 35.534C20.1782 35.82 20.1345 35.82 19.8526 35.5367C19.3853 35.0693 18.918 34.6032 18.4507 34.1358C18.1846 33.8697 18.1833 33.8233 18.4454 33.5612C20.5528 31.4533 22.6602 29.3454 24.7689 27.2402C24.8404 27.1687 24.9317 27.117 25.0125 27.0561C25.0125 27.019 25.0098 26.982 25.0085 26.9436H25.0098Z" fill="black"/>
</svg>
