<svg width="60" height="60" viewBox="0 0 60 60" fill="none" xmlns="http://www.w3.org/2000/svg">
<path d="M30 60C46.5685 60 60 46.5685 60 30C60 13.4315 46.5685 0 30 0C13.4315 0 0 13.4315 0 30C0 46.5685 13.4315 60 30 60Z" fill="#005FB3"/>
<path d="M41.9256 26.1125C41.9256 25.7875 41.9256 25.45 41.8631 25.1375C41.4381 22.9875 39.6506 21.5 37.4381 21.4875C34.9756 21.4875 32.5131 21.4875 30.0506 21.4875C27.6131 21.4875 25.1881 21.4875 22.7506 21.4875C22.4881 21.4875 22.2131 21.4875 21.9506 21.525C19.7506 21.8125 18.0256 23.7375 18.0631 26.1C18.1131 28.7 18.0631 31.2875 18.0756 33.8875C18.0756 34.2125 18.0756 34.55 18.1381 34.8625C18.5631 37.0125 20.3631 38.5125 22.5631 38.5125C27.5131 38.5125 32.4756 38.5125 37.4256 38.5125C37.6381 38.5125 37.8381 38.5 38.0506 38.475C40.2506 38.1875 41.9756 36.275 41.9381 33.9C41.8881 31.3 41.9381 28.7125 41.9256 26.1125ZM32.8881 30.2375C31.0006 31.325 29.1256 32.425 27.2381 33.5125C26.8631 33.725 26.7881 33.675 26.7881 33.225C26.7881 32.1375 26.7881 31.0625 26.7881 29.975C26.7881 28.9125 26.7881 27.8375 26.7881 26.775C26.7881 26.325 26.8756 26.2875 27.2506 26.5C29.1381 27.5875 31.0131 28.6875 32.9006 29.7875C33.1881 29.95 33.1881 30.0625 32.9006 30.2375H32.8881Z" fill="white"/>
</svg>
