<svg width="60" height="60" viewBox="0 0 60 60" fill="none" xmlns="http://www.w3.org/2000/svg">
<path d="M30 60C46.5685 60 60 46.5685 60 30C60 13.4315 46.5685 0 30 0C13.4315 0 0 13.4315 0 30C0 46.5685 13.4315 60 30 60Z" fill="#005FB3"/>
<path d="M26.3613 17.8H33.6488C34.2113 17.875 34.7863 17.85 35.3613 17.8875C36.3613 17.9625 37.3363 18.125 38.2488 18.5375C40.4863 19.55 41.6738 21.3375 42.0363 23.725C42.0988 24.15 42.1363 24.575 42.1863 25V34.8125C42.1738 34.925 42.1488 35.025 42.1488 35.1375C42.1238 35.675 42.0613 36.2125 41.9488 36.7375C41.4488 39.0625 40.1488 40.725 37.8988 41.5875C36.8238 42 35.6988 42.1 34.5613 42.1375C31.9863 42.225 29.3988 42.2 26.8238 42.175C25.5613 42.1625 24.2863 42.1625 23.0363 41.8625C21.0238 41.375 19.5238 40.225 18.6238 38.3375C18.0738 37.175 17.9363 35.925 17.8863 34.65C17.7988 32.0125 17.8363 29.375 17.8488 26.7375C17.8488 25.625 17.8738 24.5125 18.0738 23.4125C18.3863 21.7125 19.1613 20.2875 20.5613 19.25C21.7613 18.35 23.1488 18 24.6113 17.8875C25.1988 17.8375 25.7863 17.875 26.3738 17.8H26.3613ZM30.0363 40C30.6738 40 31.3238 40 31.9613 40C33.3363 39.9875 34.7238 40.025 36.0988 39.8125C37.9613 39.5125 39.2113 38.475 39.7238 36.625C39.9363 35.8625 39.9613 35.075 39.9863 34.2875C40.0613 31.8375 40.0488 29.375 40.0113 26.925C40.0113 25.9375 39.9863 24.9375 39.8488 23.95C39.5613 22 38.3613 20.7 36.4363 20.2625C35.5988 20.075 34.7363 20.0625 33.8738 20.0375C31.7363 19.9875 29.5988 20 27.4613 20.025C26.2363 20.0375 25.0113 20.025 23.7988 20.225C21.9488 20.55 20.7113 21.725 20.2863 23.5625C20.0988 24.3625 20.0863 25.1875 20.0613 26C20.0113 27.95 20.0113 29.9 20.0238 31.8625C20.0363 33.2375 19.9988 34.625 20.1988 36C20.3863 37.3375 20.9738 38.45 22.1488 39.175C22.9488 39.6625 23.8363 39.8375 24.7613 39.9C26.5113 40.0125 28.2738 39.9875 30.0238 39.9875L30.0363 40Z" fill="white"/>
<path d="M23.7618 29.9875C23.7618 26.525 26.5868 23.7125 30.0368 23.725C33.5118 23.7375 36.3118 26.55 36.2868 30C36.2618 33.4625 33.4743 36.25 30.0243 36.25C26.5618 36.25 23.7493 33.4375 23.7618 29.975V29.9875ZM25.9743 29.9875C25.9743 32.2375 27.7743 34.05 30.0243 34.05C32.2743 34.05 34.0868 32.25 34.0993 30.0125C34.0993 27.75 32.2993 25.9375 30.0368 25.9375C27.7868 25.9375 25.9868 27.7375 25.9743 29.9875Z" fill="white"/>
<path d="M36.5741 22.025C37.3866 22.0375 38.0241 22.7 37.9991 23.525C37.9741 24.325 37.3241 24.95 36.5116 24.95C35.7116 24.95 35.0616 24.2625 35.0866 23.45C35.0991 22.65 35.7741 22.025 36.5741 22.0375V22.025Z" fill="white"/>
</svg>
