<svg width="50" height="50" viewBox="0 0 50 50" fill="none" xmlns="http://www.w3.org/2000/svg">
<path d="M0 25C0 11.1929 11.1929 0 25 0V0C38.8071 0 50 11.1929 50 25V25C50 38.8071 38.8071 50 25 50V50C11.1929 50 0 38.8071 0 25V25Z" fill="white"/>
<g clip-path="url(#clip0_2611_5381)">
<path d="M26.7332 13.0415C27.1837 13.2322 27.3193 13.5764 27.3175 14.0491C27.3049 17.1736 27.3109 20.2975 27.3109 23.422V23.7304C27.4152 23.7304 27.5009 23.7304 27.5859 23.7304C28.4765 23.7304 29.3666 23.7346 30.2572 23.7286C30.6251 23.7262 30.9266 23.8362 31.087 24.181C31.2486 24.5282 31.1262 24.8235 30.885 25.096C29.1404 27.0688 27.3995 29.0447 25.6556 31.0181C25.242 31.486 24.7577 31.486 24.3447 31.0181C22.6008 29.0453 20.8599 27.0688 19.1153 25.096C18.8747 24.8235 18.7511 24.5282 18.9133 24.1816C19.0737 23.8374 19.3752 23.7268 19.7431 23.7292C20.7133 23.7352 21.683 23.731 22.6894 23.731V23.4465C22.6894 20.3143 22.6954 17.182 22.6828 14.0497C22.681 13.577 22.8166 13.2328 23.2671 13.0421H26.7338L26.7332 13.0415Z" fill="black"/>
<path d="M13.4459 29.8486H16.5219V34.4063H33.4624V29.8546H36.5456C36.5492 29.9335 36.5558 30.0106 36.5558 30.0871C36.5558 31.9876 36.557 33.8881 36.5558 35.7886C36.5558 36.85 35.9239 37.4728 34.8463 37.4728C28.2831 37.4728 21.7205 37.4728 15.1573 37.4728C14.0706 37.4728 13.4453 36.8489 13.4453 35.7665C13.4453 33.8821 13.4453 31.9972 13.4453 30.1128V29.8486H13.4459Z" fill="black"/>
</g>
<defs>
<clipPath id="clip0_2611_5381">
<rect width="23.1111" height="24.4317" fill="white" transform="translate(13.4453 13.0415)"/>
</clipPath>
</defs>
</svg>
