<svg width="54" height="54" viewBox="0 0 54 54" fill="none" xmlns="http://www.w3.org/2000/svg">
<g clip-path="url(#clip0_3204_788)">
<path d="M0 27C0 12.0883 12.0883 0 27 0C41.9117 0 54 12.0883 54 27C54 41.9117 41.9117 54 27 54C12.0883 54 0 41.9117 0 27Z" fill="black"/>
<path d="M24.2357 20.2136C21.8681 20.2136 19.5152 20.2136 17.1476 20.2136C16.3388 20.2136 15.7947 19.4637 16.0741 18.7284C16.2359 18.3019 16.5594 18.0813 17.0005 18.0078C17.0888 18.0078 17.177 18.0078 17.2652 18.0078C21.9269 18.0078 26.6033 18.0078 31.2649 18.0078C31.8973 18.0078 32.3532 18.3166 32.4708 18.8313C32.6473 19.5225 32.1473 20.1842 31.4267 20.1989C30.8238 20.1989 30.2208 20.1989 29.6179 20.1989C27.8238 20.1989 26.0298 20.1989 24.2357 20.1989V20.2136Z" fill="#F6F6F6"/>
<path d="M27.0248 25.9043C30.2895 25.9043 33.5394 25.9043 36.804 25.9043C37.5687 25.9043 38.054 26.3896 37.9952 27.1102C37.9658 27.6248 37.5393 28.0513 37.0393 28.0954C36.9217 28.0954 36.8187 28.0954 36.7011 28.0954C30.2306 28.0954 23.7749 28.0954 17.3045 28.0954C17.128 28.0954 16.9662 28.0954 16.7898 28.0513C16.2604 27.8895 15.9368 27.4043 16.0104 26.8455C16.0692 26.3308 16.5104 25.919 17.0398 25.9043C17.9368 25.9043 18.8338 25.9043 19.7162 25.9043C22.1426 25.9043 24.5837 25.9043 27.0101 25.9043H27.0248Z" fill="#F6F6F6"/>
<path d="M21.4999 35.992C20.0587 35.992 18.6323 35.992 17.1912 35.992C16.5 35.992 16.0147 35.5361 16 34.9038C16 34.2714 16.4706 33.7861 17.1323 33.7861C18.6176 33.7861 20.1029 33.7861 21.5881 33.7861C23.0293 33.7861 24.4557 33.7861 25.8968 33.7861C26.4557 33.7861 26.9115 34.1832 26.9851 34.7273C27.0586 35.242 26.7498 35.7567 26.2498 35.9184C26.0733 35.9773 25.8968 35.992 25.7204 35.992C24.3086 35.992 22.8969 35.992 21.4852 35.992H21.4999Z" fill="#F6F6F6"/>
</g>
<path d="M27 1C41.3594 1 53 12.6406 53 27C53 41.3594 41.3594 53 27 53C12.6406 53 1 41.3594 1 27C1 12.6406 12.6406 1 27 1Z" stroke="black" stroke-width="2"/>
<defs>
<clipPath id="clip0_3204_788">
<path d="M0 27C0 12.0883 12.0883 0 27 0C41.9117 0 54 12.0883 54 27C54 41.9117 41.9117 54 27 54C12.0883 54 0 41.9117 0 27Z" fill="white"/>
</clipPath>
</defs>
</svg>
