<?xml version="1.0" encoding="UTF-8"?>
<svg id="_圖層_1" data-name="圖層_1" xmlns="http://www.w3.org/2000/svg" xmlns:xlink="http://www.w3.org/1999/xlink" version="1.1" viewBox="0 0 50 50">
  <!-- Generator: Adobe Illustrator 30.3.0, SVG Export Plug-In . SVG Version: 2.1.3 Build 182)  -->
  <defs>
    <style>
      .st0 {
        fill: none;
      }

      .st1 {
        fill: #fff;
      }

      .st2 {
        clip-path: url(#clippath);
      }
    </style>
    <clipPath id="clippath">
      <rect class="st0" x="13.45" y="13.04" width="23.11" height="24.43"/>
    </clipPath>
  </defs>
  <path d="M0,25C0,11.19,11.19,0,25,0h0C38.81,0,50,11.19,50,25h0c0,13.81-11.19,25-25,25h0C11.19,50,0,38.81,0,25h0Z"/>
  <g class="st2">
    <g>
      <path class="st1" d="M26.73,13.04c.45.19.59.53.58,1.01-.01,3.12,0,6.25,0,9.37v.31h.27c.89,0,1.78,0,2.67,0,.37,0,.67.11.83.45.16.35.04.64-.2.92-1.74,1.97-3.49,3.95-5.23,5.92-.41.47-.9.47-1.31,0-1.74-1.97-3.48-3.95-5.23-5.92-.24-.27-.36-.57-.2-.91.16-.34.46-.45.83-.45.97,0,1.94,0,2.95,0v-.28c0-3.13,0-6.26,0-9.4,0-.47.13-.82.58-1.01h3.47,0Z"/>
      <path class="st1" d="M13.45,29.85h3.08v4.56h16.94v-4.55h3.08c0,.08.01.16.01.23,0,1.9,0,3.8,0,5.7,0,1.06-.63,1.68-1.71,1.68H15.16c-1.09,0-1.71-.62-1.71-1.71v-5.92h0Z"/>
    </g>
  </g>
</svg>